<?xml version="1.0" standalone="no"?>
<!DOCTYPE svg PUBLIC "-//W3C//DTD SVG 1.1//EN" "http://www.w3.org/Graphics/SVG/1.1/DTD/svg11.dtd" >
<!--
2013-9-30: Created.
-->
<svg>
<metadata>
Created by iconfont
</metadata>
<defs>

<font id="iconfont" horiz-adv-x="1024" >
  <font-face
    font-family="iconfont"
    font-weight="500"
    font-stretch="normal"
    units-per-em="1024"
    ascent="896"
    descent="-128"
  />
    <missing-glyph />
    
    <glyph glyph-name="up" unicode="&#58927;" d="M562.3 662.2c-26.2 28-70 29.3-98 3.2-1.1-1.1-2.2-2.1-3.2-3.2L31.9 211.5c-13.5-14.4-21-33.4-20.9-53.2-1-40.5 31-74 71.5-75.1 19 0.3 37.1 8.2 50.1 22l379.7 397.6 378.6-397.6c13.1-13.9 31.5-21.9 50.7-22 40.5 1.1 72.5 34.6 71.5 75.1 0.1 19.8-7.4 38.8-20.9 53.2L562.3 662.2z"  horiz-adv-x="1024" />

    
    <glyph glyph-name="arrowup_bold" unicode="&#59232;" d="M196.16 227.413333l286.549333 291.84a53.333333 53.333333 0 0 0 75.434667 0.704l0.682667-0.704 286.549333-291.84a53.333333 53.333333 0 0 1 76.117333 74.730667l-286.549333 291.84-2.069333 2.090667a160 160 0 0 1-226.282667-2.090667L120.042667 302.144a53.333333 53.333333 0 0 1 76.117333-74.730667z"  horiz-adv-x="1024" />

    
    <glyph glyph-name="arrowdown_bold" unicode="&#59233;" d="M845.376 540.586667L558.826667 248.746667a53.333333 53.333333 0 0 0-75.413334-0.704l-0.704 0.704L196.16 540.586667a53.333333 53.333333 0 0 1-76.117333-74.730667l286.549333-291.84 2.090667-2.090667a160 160 0 0 1 226.261333 2.090667l286.549333 291.84a53.333333 53.333333 0 0 1-76.117333 74.730667z"  horiz-adv-x="1024" />

    
    <glyph glyph-name="minus" unicode="&#58945;" d="M911.232 475.434667l0-109.717333q0-22.848-16-38.848t-38.848-16l-694.848 0q-22.848 0-38.848 16t-16 38.848l0 109.717333q0 22.848 16 38.848t38.848 16l694.848 0q22.848 0 38.848-16t16-38.848z"  horiz-adv-x="1024" />

    
    <glyph glyph-name="minus1" unicode="&#59263;" d="M810.666667 341.333333H213.333333a42.666667 42.666667 0 0 0 0 85.333334h597.333334a42.666667 42.666667 0 0 0 0-85.333334z"  horiz-adv-x="1024" />

    
    <glyph glyph-name="down1" unicode="&#59036;" d="M113.19 602.24c20.24 20.24 53.06 20.24 73.28 0L512.62 276.1l326.14 326.13c20.24 20.24 53.06 20.24 73.28 0 20.24-20.23 20.24-53.06 0-73.28L549.26 166.17c-20.23-20.24-53.06-20.24-73.28 0L113.19 528.95C103.07 539.07 98 552.34 98 565.59c0 13.26 5.07 26.53 15.19 36.65z"  horiz-adv-x="1024" />

    
    <glyph glyph-name="bars" unicode="&#58935;" d="M950.857143 128l0-73.142857q0-14.857143-10.857143-25.714286t-25.714286-10.857143l-804.571429 0q-14.857143 0-25.714286 10.857143t-10.857143 25.714286l0 73.142857q0 14.857143 10.857143 25.714286t25.714286 10.857143l804.571429 0q14.857143 0 25.714286-10.857143t10.857143-25.714286zm0 292.571429l0-73.142857q0-14.857143-10.857143-25.714286t-25.714286-10.857143l-804.571429 0q-14.857143 0-25.714286 10.857143t-10.857143 25.714286l0 73.142857q0 14.857143 10.857143 25.714286t25.714286 10.857143l804.571429 0q14.857143 0 25.714286-10.857143t10.857143-25.714286zm0 292.571429l0-73.142857q0-14.857143-10.857143-25.714286t-25.714286-10.857143l-804.571429 0q-14.857143 0-25.714286 10.857143t-10.857143 25.714286l0 73.142857q0 14.857143 10.857143 25.714286t25.714286 10.857143l804.571429 0q14.857143 0 25.714286-10.857143t10.857143-25.714286z"  horiz-adv-x="1024" />

    
    <glyph glyph-name="share" unicode="&#58893;" d="M184.27904-26.592256c-43.940864-0.115712-79.668224 35.400704-79.83104 79.363072 0 309.827584 253.645824 538.027008 565.443584 538.027008l77.893632 0c43.845632 0.09216 79.458304-35.354624 79.574016-79.203328 0.115712-43.823104-35.3536-79.456256-79.200256-79.54944-0.115712 0-0.258048 0-0.37376 0l-77.893632 0c-223.707136 0-405.700608-156.9792-405.700608-379.275264-0.139264-43.984896-35.913728-79.502336-79.87712-79.363072C184.302592-26.592256 184.291328-26.592256 184.27904-26.592256zM859.353088 432.069632c-21.165056-0.04608-41.491456 8.305664-56.472576 23.242752L606.534656 650.395648c-30.990336 30.732288-31.245312 80.764928-0.512 111.777792 0.185344 0.188416 0.326656 0.350208 0.512 0.535552 31.270912 30.990336 81.67424 30.990336 112.945152 0L915.82464 567.626752c31.03744-30.969856 31.107072-81.232896 0.139264-112.267264-14.98112-15.030272-35.375104-23.42912-56.610816-23.313408L859.353088 432.069632zM663.030784 236.959744c-21.164032-0.047104-41.467904 8.307712-56.496128 23.242752-30.990336 30.733312-31.245312 80.78848-0.512 111.801344 0.185344 0.164864 0.326656 0.326656 0.512 0.513024l196.344832 195.110912c31.270912 30.988288 81.677312 30.988288 112.945152 0 17.36192-19.299328 33.695744-39.507968 48.86528-60.556288 0 0-35.004416-38.013952-48.86528-51.78368L719.479808 260.156416c-14.98112-14.912512-35.28192-23.267328-56.449024-23.220224L663.030784 236.959744z"  horiz-adv-x="1024" />

    
    <glyph glyph-name="moveto" unicode="&#59274;" d="M840.704 640c-3.456 0-13.056 0-36.992 0-82.624 0-82.496 128-140.864 128C576.768 768 428.864 768 348.416 768 331.328 768 319.36 768 311.232 768 245.44 768 192 714.56 192 648.704L192 512l64 0L256 648.704C256 679.168 280.832 704 311.232 704l37.184 0 302.272 0c3.968-6.144 9.024-15.36 12.672-22.208C684.8 642.24 720.704 576 803.712 576l36.992 0C869.12 576 896 544.896 896 512l0-392.768C896 88.832 871.168 64 840.704 64L311.232 64C280.832 64 256 88.832 256 119.232L256 192 192 192l0-72.768C192 53.376 245.44 0 311.232 0l529.408 0C906.56 0 960 53.376 960 119.232L960 512C960 577.856 906.56 640 840.704 640zM497.344 202.176 630.4 332.032c0.128 0.128 0.192 0.32 0.32 0.512C633.536 335.36 635.904 342.08 637.504 345.792c1.344 3.456 1.856 0.64 2.112 4.096C639.616 350.656 640 351.296 640 352c0 0.512-0.256 0.896-0.256 1.344-0.192 3.84-0.896 5.76-2.24 9.344-1.344 3.264-3.52 6.016-5.76 8.64C631.232 371.968 630.976 372.864 630.4 373.44L497.344 506.368c-12.8 12.864-33.6 6.976-46.4-5.888-12.864-12.8-12.864-33.6 0-46.464l76.864-70.976L98.176 382.976c-18.752 0-33.984-12.8-33.92-30.912C64.192 333.952 79.424 322.368 98.24 322.368l429.632 0-76.864-79.552c-12.864-12.864-12.864-33.6 0-46.528 6.4-6.4 14.72-3.776 23.168-3.776S491.008 195.84 497.344 202.176z"  horiz-adv-x="1024" />

    
    <glyph glyph-name="download1" unicode="&#59213;" d="M810.667 341.333l0-213.333-597.333 0 0 213.333-85.333 0 0-298.667 768 0 0 298.667zM512 213.333l170.667 213.333-128 0 0 298.667-85.333 0 0-298.667-128 0z"  horiz-adv-x="1024" />

    
    <glyph glyph-name="link" unicode="&#58898;" d="M614.968 493.046c-6.829 6.829-14.096 13.046-21.625 18.737l-69.951-69.865c8.142-4.815 15.846-10.593 22.85-17.598l3.502-3.503c44.738-44.737 44.738-117.577 0-162.317l-190.856-190.944c-44.738-44.737-117.579-44.737-162.317 0l-3.503 3.503c-44.738 44.738-44.738 117.579 0 162.317l86.41 86.411c-14.97 37.032-22.149 76.518-21.448 115.914l-133.687-133.687c-82.383-82.383-82.383-217.297 0-299.679l3.503-3.503c82.47-82.383 217.297-82.383 299.679 0l190.945 190.945c82.383 82.383 82.383 217.296 0 299.679l-3.503 3.59zM897.227 768.126l-3.503 3.503c-82.383 82.383-217.297 82.383-299.679 0l-191.032-190.945c-82.383-82.383-82.383-217.297 0-299.68l3.502-3.502c6.829-6.829 14.096-13.047 21.626-18.823l69.863 69.863c-8.142 4.817-15.846 10.593-22.85 17.598l-3.503 3.59c-44.737 44.738-44.737 117.579 0 162.317l190.945 190.945c44.738 44.738 117.579 44.738 162.317 0l3.502-3.502c44.738-44.738 44.738-117.579 0-162.317l-86.41-86.411c14.97-37.033 22.15-76.518 21.448-115.914l133.776 133.6c82.383 82.472 82.383 217.297 0 299.679v0-0.001h-0.001z"  horiz-adv-x="1024" />

    
    <glyph glyph-name="icon_status-empty-dot" unicode="&#58938;" d="M512 640a256 256 0 1 0-256-256 256.288 256.288 0 0 0 256 256m0 64a320 320 0 1 1 320-320A320 320 0 0 1 512 704z"  horiz-adv-x="1024" />

    
    <glyph glyph-name="triangle" unicode="&#59454;" d="M933.12 72.96l-384 664.746667a42.666667 42.666667 0 0 1-74.24 0l-384-664.746667a42.666667 42.666667 0 0 1 0-42.666667 42.666667 42.666667 0 0 1 37.12-21.333333h768a42.666667 42.666667 0 0 1 37.12 21.333333 42.666667 42.666667 0 0 1 0 42.666667z m-731.306667 21.333333L512 631.04l310.186667-536.746667z"  horiz-adv-x="1024" />

    
    <glyph glyph-name="square" unicode="&#59291;" d="M768 0H256a128 128 0 0 0-128 128V640a128 128 0 0 0 128 128h512a128 128 0 0 0 128-128v-512a128 128 0 0 0-128-128zM256 682.666667a42.666667 42.666667 0 0 1-42.666667-42.666667v-512a42.666667 42.666667 0 0 1 42.666667-42.666667h512a42.666667 42.666667 0 0 1 42.666667 42.666667V640a42.666667 42.666667 0 0 1-42.666667 42.666667z"  horiz-adv-x="1024" />

    
    <glyph glyph-name="delete" unicode="&#58894;" d="M608 128c-17.696 0-32 14.304-32 32V512c0 17.696 14.304 32 32 32s32-14.304 32-32v-352c0-17.696-14.304-32-32-32zM416 128c-17.696 0-32 14.304-32 32V512c0 17.696 14.304 32 32 32s32-14.304 32-32v-352c0-17.696-14.304-32-32-32zM928 672H768v64c0 52.928-42.72 96-95.264 96H352c-52.928 0-96-43.072-96-96v-64H96c-17.696 0-32-14.304-32-32s14.304-32 32-32h832c17.696 0 32 14.304 32 32s-14.304 32-32 32z m-608 64c0 17.632 14.368 32 32 32h320.736C690.272 768 704 753.952 704 736v-64H320v64zM736.128-64H288.064c-52.928 0-96 43.072-96 96V512.48c0 17.664 14.336 32 32 32s32-14.336 32-32V32c0-17.664 14.368-32 32-32h448.064c17.664 0 32 14.336 32 32V511.168c0 17.664 14.304 32 32 32s32-14.336 32-32V32c0-52.928-43.072-96-96-96z"  horiz-adv-x="1024" />

    
    <glyph glyph-name="drive_file_rename_outline" unicode="&#59063;" d="M470.016 41.984L640 213.973333h256v-171.989333h-425.984zM264.021333 128l370.005334 370.005333-52.010667 52.010667-368-370.005333V128h50.005333zM786.005333 647.978667q25.984-25.984 25.984-59.989334t-25.984-59.989333L299.989333 41.984H128v173.994667L614.016 699.989333q25.984 25.984 59.989333 25.984t59.989334-25.984z"  horiz-adv-x="1024" />

    
    <glyph glyph-name="circle" unicode="&#59490;" d="M512 853.333333C251.733333 853.333333 42.666667 644.266667 42.666667 384s209.066667-469.333333 469.333333-469.333333 469.333333 209.066667 469.333333 469.333333S772.266667 853.333333 512 853.333333z m0-853.333333c-213.333333 0-384 170.666667-384 384s170.666667 384 384 384 384-170.666667 384-384-170.666667-384-384-384z"  horiz-adv-x="1024" />

    
    <glyph glyph-name="copy" unicode="&#59494;" d="M853.333333 554.666667h-384c-72.533333 0-128-55.466667-128-128v-384c0-72.533333 55.466667-128 128-128h384c72.533333 0 128 55.466667 128 128v384c0 72.533333-55.466667 128-128 128z m42.666667-512c0-25.6-17.066667-42.666667-42.666667-42.666667h-384c-25.6 0-42.666667 17.066667-42.666666 42.666667v384c0 25.6 17.066667 42.666667 42.666666 42.666666h384c25.6 0 42.666667-17.066667 42.666667-42.666666v-384zM213.333333 298.666667H170.666667c-25.6 0-42.666667 17.066667-42.666667 42.666666V725.333333c0 25.6 17.066667 42.666667 42.666667 42.666667h384c25.6 0 42.666667-17.066667 42.666666-42.666667v-42.666666c0-25.6 17.066667-42.666667 42.666667-42.666667s42.666667 17.066667 42.666667 42.666667V725.333333c0 72.533333-55.466667 128-128 128H170.666667C98.133333 853.333333 42.666667 797.866667 42.666667 725.333333v-384c0-72.533333 55.466667-128 128-128h42.666666c25.6 0 42.666667 17.066667 42.666667 42.666667s-17.066667 42.666667-42.666667 42.666667z"  horiz-adv-x="1024" />

    
    <glyph glyph-name="list-ul1" unicode="&#59073;" d="M219.428571 91.428571q0-45.714286-32-77.714285t-77.714285-32-77.714286 32-32 77.714285 32 77.714286 77.714286 32 77.714285-32 32-77.714286z m0 292.571429q0-45.714286-32-77.714286t-77.714285-32-77.714286 32T0 384t32 77.714286 77.714286 32 77.714285-32 32-77.714286z m804.571429-237.714286v-109.714285q0-7.428571-5.428571-12.857143t-12.857143-5.428572H310.857143q-7.428571 0-12.857143 5.428572T292.571429 36.571429v109.714285q0 7.428571 5.428571 12.857143t12.857143 5.428572h694.857143q7.428571 0 12.857143-5.428572t5.428571-12.857143zM219.428571 676.571429q0-45.714286-32-77.714286t-77.714285-32-77.714286 32T0 676.571429t32 77.714285 77.714286 32 77.714285-32 32-77.714285z m804.571429-237.714286v-109.714286q0-7.428571-5.428571-12.857143t-12.857143-5.428571H310.857143q-7.428571 0-12.857143 5.428571T292.571429 329.142857V438.857143q0 7.428571 5.428571 12.857143T310.857143 457.142857h694.857143q7.428571 0 12.857143-5.428571t5.428571-12.857143z m0 292.571428v-109.714285q0-7.428571-5.428571-12.857143T1005.714286 603.428571H310.857143q-7.428571 0-12.857143 5.428572T292.571429 621.714286V731.428571q0 7.428571 5.428571 12.857143T310.857143 749.714286h694.857143q7.428571 0 12.857143-5.428572t5.428571-12.857143z"  horiz-adv-x="1024" />

    
    <glyph glyph-name="icon-test" unicode="&#58963;" d="M805.056 136.192L264.192 677.088A382.24 382.24 0 0 0 512 767.968c212.064 0 384-171.872 384-384 0-94.464-34.24-180.896-90.944-247.776M128 384a382.08 382.08 0 0 0 90.944 247.84l540.864-540.896A381.984 381.984 0 0 0 512 0C299.936 0 128 171.936 128 384M512 832C264.96 832 64 631.04 64 384s200.96-448 448-448 448 200.96 448 448S759.04 832 512 832"  horiz-adv-x="1024" />

    
    <glyph glyph-name="file-alt1" unicode="&#59416;" d="M704 400v-56c0-13.2-10.8-24-24-24H344c-13.2 0-24 10.8-24 24v56c0 13.2 10.8 24 24 24h336c13.2 0 24-10.8 24-24z m-24-144H344c-13.2 0-24-10.8-24-24v-56c0-13.2 10.8-24 24-24h336c13.2 0 24 10.8 24 24v56c0 13.2-10.8 24-24 24z m216 376.2V-32c0-53-43-96-96-96H224c-53 0-96 43-96 96V800C128 853 171 896 224 896h408.2C657.6 896 682 885.8 700 867.8L867.8 700c18-17.8 28.2-42.4 28.2-67.8z m-256 160V640h152.2L640 792.2zM800-32V544H592c-26.6 0-48 21.4-48 48V800H224v-832h576z"  horiz-adv-x="1024" />

    
    <glyph glyph-name="hamburger" unicode="&#58885;" d="M958.060195 658.318716c0-9.611915-7.792477-17.404392-17.404392-17.404392L79.092359 640.914324c-9.611915 0-17.404392 7.792477-17.404392 17.404392l0 90.030479c0 9.611915 7.792477 17.404392 17.404392 17.404392l861.562421 0c9.611915 0 17.404392-7.792477 17.404392-17.404392L958.059172 658.318716zM958.060195 338.511993c0-9.611915-7.792477-17.404392-17.404392-17.404392L79.092359 321.107601c-9.611915 0-17.404392 7.792477-17.404392 17.404392l0 90.030479c0 9.611915 7.792477 17.404392 17.404392 17.404392l861.562421 0c9.611915 0 17.404392-7.792477 17.404392-17.404392L958.059172 338.511993zM958.060195 18.70527c0-9.611915-7.792477-17.404392-17.404392-17.404392L79.092359 1.300878c-9.611915 0-17.404392 7.792477-17.404392 17.404392l0 90.030479c0 9.611915 7.792477 17.404392 17.404392 17.404392l861.562421 0c9.611915 0 17.404392-7.792477 17.404392-17.404392L958.059172 18.70527z"  horiz-adv-x="1024" />

    
    <glyph glyph-name="hamburger-menu" unicode="&#58971;" d="M192 576h640a64 64 0 0 1 0 128H192a64 64 0 0 1 0-128z m640-128H192a64 64 0 0 1 0-128h640a64 64 0 0 1 0 128z m0-256H192a64 64 0 0 1 0-128h640a64 64 0 0 1 0 128z"  horiz-adv-x="1024" />

    
    <glyph glyph-name="security" unicode="&#59509;" d="M512 853.333333l-384-170.666667 0-256c0-237.013333 163.626667-458.026667 384-512 220.373333 53.973333 384 274.986667 384 512l0 256-384 170.666667zM512 384.426667l298.666667 0c-22.613333-175.786667-139.733333-332.373333-298.666667-381.226667l0 380.8-298.666667 0 0 243.2 298.666667 132.693333 0-375.466667z"  horiz-adv-x="1024" />

    
    <glyph glyph-name="dashboard" unicode="&#60168;" d="M553.984 768l342.016 0 0-256-342.016 0 0 256zM553.984 0l0 425.984 342.016 0 0-425.984-342.016 0zM128 0l0 256 342.016 0 0-256-342.016 0zM128 342.016l0 425.984 342.016 0 0-425.984-342.016 0z"  horiz-adv-x="1024" />

    
    <glyph glyph-name="xiangmu1" unicode="&#58908;" d="M775 359.8 456.8 359.8c-26 0-47 21-47 47 0 26 21 47 47 47l318.2 0c26 0 47-21 47-47C822 380.8 800.8 359.8 775 359.8L775 359.8zM775 173.8 456.8 173.8c-26 0-47 21-47 47s21 47 47 47l318.2 0c26 0 47-21 47-47S800.8 173.8 775 173.8L775 173.8zM991 20.2 991 614.6c0 72.2-65.8 65.4-65.8 65.4s-392.8-0.4-371.8 0c-22.4-0.4-33.8 11.8-33.8 11.8s-15.6 27-43.8 69.4c-29.4 44.6-63.6 37.4-63.6 37.4L123 798.6C42.8 798.6 42 721.4 42 721.4L42 24c0-86 65-75.4 65-75.4l824.2 0C1000.8-51.4 991 20.2 991 20.2L991 20.2zM932 55.4c0-26.6-21.4-48-48-48L149 7.4c-26.6 0-48 21.4-48 48L101 553c0 26.6 21.4 48 48 48L884 601c26.6 0 48-21.4 48-48L932 55.4 932 55.4zM282.2 406.8m-50.2 0a25.1 25.1 0 1 0 100.4 0 25.1 25.1 0 1 0-100.4 0ZM282.2 220.8m-50.2 0a25.1 25.1 0 1 0 100.4 0 25.1 25.1 0 1 0-100.4 0Z"  horiz-adv-x="1024" />

    
    <glyph glyph-name="profile" unicode="&#59092;" d="M512-85.333333C251.733333-85.333333 42.666667 123.733333 42.666667 384 42.666667 644.266667 251.733333 853.333333 512 853.333333s469.333333-209.066667 469.333333-469.333333C981.333333 123.733333 772.266667-85.333333 512-85.333333zM721.066667 181.333333c-10.666667 72.533333-57.6 132.266667-123.733333 162.133333 49.066667 29.866667 83.2 83.2 83.2 147.2 0 93.866667-76.8 170.666667-170.666667 170.666667s-170.666667-76.8-170.666667-170.666667c0-61.866667 34.133333-117.333333 83.2-147.2-66.133333-29.866667-113.066667-89.6-123.733333-162.133333C300.8 177.066667 298.666667 174.933333 298.666667 170.666667c0-12.8 8.533333-21.333333 21.333333-21.333333 10.666667 0 21.333333 10.666667 21.333333 21.333333l2.133333 0c10.666667 83.2 81.066667 149.333333 168.533333 149.333333 87.466667 0 157.866667-66.133333 168.533333-149.333333L682.666667 170.666667c0-12.8 8.533333-21.333333 21.333333-21.333333 12.8 0 21.333333 10.666667 21.333333 21.333333C725.333333 174.933333 723.2 179.2 721.066667 181.333333zM384 490.666667c0 70.4 57.6 128 128 128s128-57.6 128-128c0-70.4-57.6-128-128-128S384 420.266667 384 490.666667z"  horiz-adv-x="1024" />

    
    <glyph glyph-name="profile-1" unicode="&#59055;" d="M512 896c177.92 0 320-153.898667 320-341.333333 0-96.853333-37.973333-184.789333-99.2-247.125334 156.714667-54.826667 255.658667-175.957333 290.133333-359.765333a64 64 0 0 0-57.258666-75.52L960-128h-896a64 64 0 0 0-62.890667 75.776c34.474667 183.808 133.418667 304.938667 290.133334 359.765333C229.973333 369.834667 192 457.813333 192 554.666667c0 187.434667 142.08 341.333333 320 341.333333z m0-682.666667c-188.16 0-304.256-64.341333-359.168-198.826666l-4.309333-11.050667-1.28-3.456h729.472l-1.194667 3.456c-50.304 134.826667-158.506667 202.794667-334.677333 209.365333l-14.805334 0.426667L512 213.333333z m0 554.666667C407.168 768 320 673.578667 320 554.666667s87.168-213.333333 192-213.333334c104.874667 0 192 94.421333 192 213.333334S616.874667 768 512 768z"  horiz-adv-x="1024" />

    
    <glyph glyph-name="history" unicode="&#59532;" d="M938.666667 384a384 384 0 0 0-384-384 379.306667 379.306667 0 0 0-220.16 69.546667 21.76 21.76 0 0 0-8.96 15.786666 21.333333 21.333333 0 0 0 5.973333 16.64l30.72 31.146667a21.333333 21.333333 0 0 0 26.88 2.56A294.826667 294.826667 0 0 1 554.666667 85.333333a298.666667 298.666667 0 1 1-298.666667 298.666667h100.693333a20.906667 20.906667 0 0 0 15.36-6.4l8.533334-8.533333a21.333333 21.333333 0 0 0 0-30.293334L229.973333 187.733333a21.76 21.76 0 0 0-30.293333 0l-150.613333 151.04a21.333333 21.333333 0 0 0 0 30.293334l8.533333 8.533333a20.906667 20.906667 0 0 0 15.36 6.4H170.666667a384 384 0 0 0 768 0z m-367.786667 213.333333h-32.426667a21.333333 21.333333 0 0 1-21.333333-21.333333v-198.826667a22.613333 22.613333 0 0 1 6.4-14.933333l140.373333-140.373333a21.333333 21.333333 0 0 1 30.293334 0l22.613333 22.613333a21.333333 21.333333 0 0 1 0 30.293333l-124.586667 124.586667V576a21.333333 21.333333 0 0 1-21.333333 21.333333z"  horiz-adv-x="1024" />

    
    <glyph glyph-name="search" unicode="&#59476;" d="M992.256 24.59648l-242.54464 206.29504c-25.06752 22.56896-51.89632 32.93184-73.54368 31.92832 57.26208 67.072 91.83232 154.07104 91.83232 249.18016 0 212.0704-171.9296 384-384 384s-384-171.9296-384-384 171.9296-384 384-384c95.08864 0 182.10816 34.59072 249.18016 91.8528-1.00352-21.66784 9.35936-48.47616 31.92832-73.54368l206.29504-242.54464c35.328-39.23968 93.02016-42.55744 128.22528-7.35232s31.88736 92.89728-7.35232 128.22528zM384 256c-141.39392 0-256 114.60608-256 256s114.60608 256 256 256 256-114.60608 256-256-114.60608-256-256-256z"  horiz-adv-x="1025" />

    
    <glyph glyph-name="bell" unicode="&#58919;" d="M521.142857-73.142857a8.996571 8.996571 0 0 1-9.142857 9.142857A82.688 82.688 0 0 0 429.714286 18.285714c0 5.156571-3.986286 9.142857-9.142857 9.142857s-9.142857-3.986286-9.142858-9.142857A100.717714 100.717714 0 0 1 512-82.285714c5.156571 0 9.142857 3.986286 9.142857 9.142857zM987.428571 91.428571c0-40.009143-33.133714-73.142857-73.142857-73.142857h-256c0-80.566857-65.718857-146.285714-146.285714-146.285714s-146.285714 65.718857-146.285714 146.285714H109.714286c-40.009143 0-73.142857 33.133714-73.142857 73.142857 84.553143 71.424 182.857143 199.424 182.857142 475.428572 0 109.714286 90.843429 229.705143 242.285715 252.013714A57.563429 57.563429 0 0 0 457.142857 841.142857a54.857143 54.857143 0 0 0 109.714286 0c0-8.009143-1.718857-15.433143-4.571429-22.272C713.728 796.598857 804.571429 676.571429 804.571429 566.857143c0-276.004571 98.304-404.004571 182.857142-475.428572z"  horiz-adv-x="1024" />

    
    <glyph glyph-name="cogs" unicode="&#58970;" d="M512.004023 384c0 80.566857-65.718857 146.285714-146.285714 146.285714s-146.285714-65.718857-146.285715-146.285714 65.718857-146.285714 146.285715-146.285714 146.285714 65.718857 146.285714 146.285714z m438.857143-292.571429c0 40.009143-33.133714 73.142857-73.142857 73.142858s-73.142857-33.133714-73.142858-73.142858c0-40.557714 33.133714-73.142857 73.142858-73.142857 40.557714 0 73.142857 33.133714 73.142857 73.142857z m0 585.142858c0 40.009143-33.133714 73.142857-73.142857 73.142857s-73.142857-33.133714-73.142858-73.142857c0-40.557714 33.133714-73.142857 73.142858-73.142858 40.557714 0 73.142857 33.133714 73.142857 73.142858z m-219.428572-240.566858v-105.728c0-7.424-5.705143-16.018286-13.129143-17.152l-88.576-13.714285a261.12 261.12 0 0 0-18.285714-43.446857c16.018286-22.857143 33.133714-43.995429 51.419429-65.718858a19.602286 19.602286 0 0 0 3.986285-11.446857 15.104 15.104 0 0 0-3.986285-10.861714c-11.446857-15.433143-75.446857-85.138286-92.013715-85.138286a21.686857 21.686857 0 0 0-11.995428 3.986286l-65.718857 51.419429a244.772571 244.772571 0 0 0-43.995429-17.700572c-2.852571-29.147429-5.705143-60.562286-13.129143-88.576a18.212571 18.212571 0 0 0-17.152-13.714286H312.580023c-8.009143 0-16.018286 6.290286-17.152 14.299429l-13.129143 87.442286a283.977143 283.977143 0 0 0-42.861714 17.700571l-67.437715-50.870857a16.457143 16.457143 0 0 0-11.446857-3.986286 18.468571 18.468571 0 0 0-11.995428 4.571429c-14.848 13.714286-82.285714 74.861714-82.285715 91.428571 0 3.986286 1.718857 7.424 3.986286 10.861715 16.566857 21.723429 33.718857 42.861714 50.285714 65.133714a305.188571 305.188571 0 0 0-20.004571 46.848l-86.857143 13.714286a16.603429 16.603429 0 0 0-13.714286 16.566857v105.728c0 7.424 5.705143 16.018286 13.129143 17.152l88.576 13.714285a261.12 261.12 0 0 0 18.285715 43.446858 934.656 934.656 0 0 1-51.419429 65.718857c-2.304 3.437714-3.986286 7.424-3.986286 11.446857s1.133714 8.009143 3.986286 11.446857c11.446857 15.433143 75.446857 84.553143 92.013714 84.553143 4.571429 0 8.557714-1.718857 11.995429-3.986286l65.718857-51.419428a299.666286 299.666286 0 0 0 43.995429 18.285714c2.852571 28.562286 5.705143 60.013714 13.129142 87.990857A18.212571 18.212571 0 0 0 312.543451 749.714286h106.276572c8.009143 0 16.018286-6.290286 17.152-14.299429l13.129143-87.442286c14.848-4.571429 29.147429-10.861714 42.861714-17.700571l67.437714 50.870857a17.517714 17.517714 0 0 0 11.446857 3.986286c4.571429 0 8.557714-1.718857 11.995429-4.571429 14.848-13.714286 82.285714-75.446857 82.285714-91.428571a19.675429 19.675429 0 0 0-3.986285-10.861714c-16.566857-22.272-33.718857-42.861714-49.700572-65.133715 7.424-15.433143 14.299429-30.866286 19.419429-46.848l86.857143-13.129143c8.009143-1.718857 13.714286-9.142857 13.714285-17.152z m365.714286-304.566857v-80.018285c0-8.557714-73.728-16.566857-85.138286-17.700572a137.874286 137.874286 0 0 0-17.152-29.696c5.156571-11.446857 29.147429-68.571429 29.147429-78.848 0-1.718857-0.585143-2.852571-2.304-3.986286-6.838857-3.986286-67.986286-40.557714-70.838857-40.557714-7.424 0-50.285714 57.161143-55.990857 65.718857-5.705143-0.585143-11.446857-1.133714-17.152-1.133714s-11.446857 0.585143-17.152 1.133714c-5.705143-8.557714-48.566857-65.718857-55.990858-65.718857-2.852571 0-64 36.571429-70.838857 40.557714a4.937143 4.937143 0 0 0-2.304 3.986286c0 9.728 23.990857 67.437714 29.147429 78.848a140.288 140.288 0 0 0-17.152 29.696c-11.446857 1.133714-85.138286 9.142857-85.138286 17.700572v80.018285c0 8.557714 73.728 16.566857 85.138286 17.700572 4.571429 10.276571 10.276571 20.553143 17.152 29.696-5.156571 11.446857-29.147429 69.156571-29.147429 78.848 0 1.133714 0.585143 2.852571 2.304 3.986285 6.838857 3.437714 67.986286 40.009143 70.838857 40.009143 7.424 0 50.285714-56.576 55.990858-65.133714 5.705143 0.585143 11.446857 1.133714 17.152 1.133714s11.446857-0.585143 17.152-1.133714c16.018286 22.272 33.133714 44.580571 52.553142 64l3.437715 1.133714c2.852571 0 64-35.986286 70.838857-40.009143a4.937143 4.937143 0 0 0 2.304-3.986285c0-10.276571-23.990857-67.437714-29.147429-78.848 6.838857-9.142857 12.580571-19.419429 17.152-29.696 11.446857-1.133714 85.138286-9.142857 85.138286-17.700572z m0 585.142857v-79.981714c0-8.557714-73.728-16.566857-85.138286-17.700571a137.874286 137.874286 0 0 0-17.152-29.696c5.156571-11.446857 29.147429-68.571429 29.147429-78.848 0-1.718857-0.585143-2.852571-2.304-3.986286-6.838857-3.986286-67.986286-40.557714-70.838857-40.557714-7.424 0-50.285714 57.161143-55.990857 65.718857-5.705143-0.585143-11.446857-1.133714-17.152-1.133714s-11.446857 0.585143-17.152 1.133714c-5.705143-8.557714-48.566857-65.718857-55.990858-65.718857-2.852571 0-64 36.571429-70.838857 40.557714a4.937143 4.937143 0 0 0-2.304 3.986286c0 9.728 23.990857 67.437714 29.147429 78.848a140.288 140.288 0 0 0-17.152 29.696C731.981166 620.032 658.289737 628.041143 658.289737 636.598857V716.617143c0 8.557714 73.728 16.566857 85.138286 17.700571 4.571429 10.276571 10.276571 20.553143 17.152 29.696C755.423451 775.460571 731.432594 833.170286 731.432594 842.861714c0 1.133714 0.585143 2.852571 2.304 3.986286C740.575451 850.285714 801.72288 886.857143 804.575451 886.857143c7.424 0 50.285714-56.576 55.990858-65.133714 5.705143 0.585143 11.446857 1.133714 17.152 1.133714s11.446857-0.585143 17.152-1.133714c16.018286 22.272 33.133714 44.580571 52.553142 64L950.861166 886.857143c2.852571 0 64-35.986286 70.838857-40.009143a4.937143 4.937143 0 0 0 2.304-3.986286c0-10.276571-23.990857-67.437714-29.147429-78.848 6.838857-9.142857 12.580571-19.419429 17.152-29.696 11.446857-1.133714 85.138286-9.142857 85.138286-17.700571z"  horiz-adv-x="1097" />

    
    <glyph glyph-name="lock" unicode="&#58917;" d="M742.4 486.4H716.8V563.2C716.8 690.2272 613.4272 793.6 486.4 793.6S256 690.2272 256 563.2V486.4h-25.6C188.0576 486.4 153.6 451.9424 153.6 409.6v-409.6c0-42.3424 34.4576-76.8 76.8-76.8h512c42.3424 0 76.8 34.4576 76.8 76.8v409.6c0 42.3424-34.4576 76.8-76.8 76.8zM307.2 563.2C307.2 662.016 387.584 742.4 486.4 742.4S665.6 662.016 665.6 563.2V486.4H307.2V563.2z m460.8-563.2a25.6 25.6 0 0 0-25.6-25.6h-512a25.6 25.6 0 0 0-25.6 25.6v409.6a25.6 25.6 0 0 0 25.6 25.6h512a25.6 25.6 0 0 0 25.6-25.6v-409.6z"  horiz-adv-x="1024" />

    
    <glyph glyph-name="file-alt" unicode="&#61377;" d="M576 624V896H176C149.4 896 128 874.6 128 848v-928c0-26.6 21.4-48 48-48h672c26.6 0 48 21.4 48 48V576H624c-26.4 0-48 21.6-48 48z m128-472c0-13.2-10.8-24-24-24H344c-13.2 0-24 10.8-24 24v16c0 13.2 10.8 24 24 24h336c13.2 0 24-10.8 24-24v-16z m0 128c0-13.2-10.8-24-24-24H344c-13.2 0-24 10.8-24 24v16c0 13.2 10.8 24 24 24h336c13.2 0 24-10.8 24-24v-16z m0 144v-16c0-13.2-10.8-24-24-24H344c-13.2 0-24 10.8-24 24v16c0 13.2 10.8 24 24 24h336c13.2 0 24-10.8 24-24z m192 228.2v-12.2H640V896h12.2c12.8 0 25-5 34-14l195.8-196c9-9 14-21.2 14-33.8z"  horiz-adv-x="1024" />

    
    <glyph glyph-name="list-ul" unicode="&#61497;" d="M192 704c0-53.02-42.98-96-96-96S0 650.98 0 704s42.98 96 96 96 96-42.98 96-96zM96 480c-53.02 0-96-42.98-96-96s42.98-96 96-96 96 42.98 96 96-42.98 96-96 96z m0-320c-53.02 0-96-42.98-96-96s42.98-96 96-96 96 42.98 96 96-42.98 96-96 96z m192 472h704c17.674 0 32 14.326 32 32V744c0 17.674-14.326 32-32 32H288c-17.674 0-32-14.326-32-32v-80c0-17.674 14.326-32 32-32z m0-320h704c17.674 0 32 14.326 32 32v80c0 17.674-14.326 32-32 32H288c-17.674 0-32-14.326-32-32v-80c0-17.674 14.326-32 32-32z m0-320h704c17.674 0 32 14.326 32 32v80c0 17.674-14.326 32-32 32H288c-17.674 0-32-14.326-32-32v-80c0-17.674 14.326-32 32-32z"  horiz-adv-x="1024" />

    
    <glyph glyph-name="code" unicode="&#58928;" d="M1024 384c0-17-6.7-33.2-18.8-45.2l-128-128c-24.2-25.8-64.7-27.1-90.5-2.9-25.8 24.2-27.1 64.7-2.9 90.5 0.9 1 1.9 2 2.9 2.9l82.7 82.8-82.8 82.8c-25 25-25 65.5 0 90.5s65.5 25 90.5 0l128-128c12.1-12.1 18.9-28.4 18.9-45.4zM697.2 611.5l-256-512h-0.6c-15.4-31.5-53.5-44.6-85-29.2-22 10.8-35.9 33.2-35.6 57.7 0.2 9.9 2.7 19.6 7.4 28.3h-0.6l256 512h0.6c15.4 31.5 53.5 44.6 85 29.2 21.9-10.7 35.8-33.1 35.6-57.5-0.2-9.9-2.7-19.6-7.4-28.4l0.6-0.1zM192 192c-17 0-33.3 6.7-45.2 18.8l-128 128c-25 25-25 65.5-0.1 90.5l0.1 0.1 128 128c25 25 65.5 25 90.5 0s25-65.5 0-90.5L154.5 384l82.8-82.8c25-25 25-65.5 0-90.5-12.1-12-28.3-18.7-45.3-18.7z"  horiz-adv-x="1024" />

    
    <glyph glyph-name="download" unicode="&#58880;" d="M432 896h160c26.6 0 48-21.4 48-48v-336h175.4c35.6 0 53.4-43 28.2-68.2L539.4 139.4c-15-15-39.6-15-54.6 0L180.2 443.8c-25.2 25.2-7.4 68.2 28.2 68.2H384V848c0 26.6 21.4 48 48 48z m592-752v-224c0-26.6-21.4-48-48-48H48c-26.6 0-48 21.4-48 48V144c0 26.6 21.4 48 48 48h293.4l98-98c40.2-40.2 105-40.2 145.2 0l98 98H976c26.6 0 48-21.4 48-48z m-248-176c0 22-18 40-40 40s-40-18-40-40 18-40 40-40 40 18 40 40z m128 0c0 22-18 40-40 40s-40-18-40-40 18-40 40-40 40 18 40 40z"  horiz-adv-x="1024" />

    
    <glyph glyph-name="palette" unicode="&#59412;" d="M408.57203 885.930589C209.785639 847.133245 49.596605 687.344184 10.399288 489.157751c-73.994935-373.974399 263.38197-652.755314 517.564569-613.358011 82.39436 12.799124 122.791594 109.192525 84.994182 183.387446-46.196838 90.793785 19.798645 196.786529 121.791662 196.786528h159.389089c71.595099 0 129.591129 59.195948 129.791115 130.59106C1022.929973 701.743198 736.149605 949.726222 408.57203 885.930589zM191.986857 255.973714c-35.397577 0-63.995619 28.598042-63.995619 63.995619s28.598042 63.995619 63.995619 63.995619 63.995619-28.598042 63.995619-63.995619-28.598042-63.995619-63.995619-63.995619z m63.995619 255.982476c-35.397577 0-63.995619 28.598042-63.995619 63.99562s28.598042 63.995619 63.995619 63.995619 63.995619-28.598042 63.995619-63.995619-28.598042-63.995619-63.995619-63.99562z m255.982476 127.991239c-35.397577 0-63.995619 28.598042-63.995619 63.995619s28.598042 63.995619 63.995619 63.995619 63.995619-28.598042 63.995619-63.995619-28.598042-63.995619-63.995619-63.995619z m255.982477-127.991239c-35.397577 0-63.995619 28.598042-63.995619 63.99562s28.598042 63.995619 63.995619 63.995619 63.995619-28.598042 63.995619-63.995619-28.598042-63.995619-63.995619-63.99562z"  horiz-adv-x="1024" />

    
    <glyph glyph-name="course" unicode="&#59032;" d="M298.048 629.248l127.392-229.376a40 40 0 0 0 0-38.88l-127.28-228.768 430.304 248.48-430.4 248.544z m-70.016 27.216A32 32 0 0 0 272 699.712l504.448-291.296a32 32 0 0 0 0-55.424L272.048 61.728a32 32 0 0 0-43.968 43.264l153.248 275.456-153.296 276.016z"  horiz-adv-x="1024" />

    
    <glyph glyph-name="down" unicode="&#59035;" d="M830.24 555.312l11.328-11.312a16 16 0 0 0 0-22.624L530.448 210.24a16 16 0 0 0-22.64 0L196.688 521.376a16 16 0 0 0 0 22.624l11.312 11.312a16 16 0 0 0 22.624 0l288.496-288.496 288.512 288.496a16 16 0 0 0 22.624 0z"  horiz-adv-x="1024" />

    
    <glyph glyph-name="upward" unicode="&#59041;" d="M830.24 210.24l11.328 11.312a16 16 0 0 1 0 22.64L530.448 555.312a16 16 0 0 1-22.64 0L196.688 244.192a16 16 0 0 1 0-22.64l11.312-11.312a16 16 0 0 1 22.624 0l288.496 288.512L807.632 210.24a16 16 0 0 1 22.624 0z"  horiz-adv-x="1024" />

    
    <glyph glyph-name="next" unicode="&#59042;" d="M340.688 65.76l11.312-11.328a16 16 0 0 1 22.624 0L685.76 365.552a16 16 0 0 1 0 22.64L374.624 699.312a16 16 0 0 1-22.624 0l-11.312-11.312a16 16 0 0 1 0-22.624l288.496-288.496-288.496-288.512a16 16 0 0 1 0-22.624z"  horiz-adv-x="1024" />

    
    <glyph glyph-name="password-not-view" unicode="&#59171;" d="M928.845558 474.242048l45.62944-70.99392c7.153664-11.13088 3.109888-25.468928-9.03168-32.0256-12.141568-6.556672-27.783168-2.849792-34.936832 8.27904l-44.27776 68.893696c-49.41824-28.005376-99.275776-49.5104-149.352448-65.000448l35.229696-77.840384c5.400576-11.931648-0.774144-25.616384-13.790208-30.5664-13.01504-4.950016-27.94496 0.709632-33.345536 12.640256l-36.436992 80.50688a22.441984 22.441984 0 0 0-0.78848 1.988608c-49.997824-11.56608-100.14208-17.321984-150.217728-17.747968v-87.3216c0-12.918784-11.42272-23.390208-25.515008-23.390208-14.092288 0-25.516032 10.471424-25.516032 23.389184v87.10144c0 0.54272 0.02048 1.08032 0.059392 1.6128-49.934336 3.134464-99.72736 11.423744-149.163008 24.389632 0.166912-3.328-0.442368-6.740992-1.927168-10.021888l-36.436992-80.50688c-5.400576-11.930624-20.329472-17.590272-33.345536-12.640256-13.016064 4.950016-19.18976 18.634752-13.790208 30.5664l36.435968 80.50688a23.037952 23.037952 0 0 0 3.433472 5.412864c-45.037568 14.46912-89.719808 32.734208-133.881856 54.429696a995.746816 995.746816 0 0 0-16.38912 8.240128l-47.9744-74.642432c-7.15264-11.128832-22.79424-14.835712-34.935808-8.27904-12.141568 6.556672-16.185344 20.89472-9.03168 32.024576l48.120832 74.870784c-17.281024 10.04544-33.57696 20.2496-48.82944 30.461952-11.23328 7.520256-21.10976 14.52544-29.564928 20.840448-5.169152 3.861504-8.773632 6.685696-10.745856 8.298496-10.514432 8.600576-11.431936 23.386112-2.050048 33.024 9.382912 9.638912 25.511936 10.479616 36.026368 1.87904 6.176768-5.052416 18.516992-14.270464 36.434944-26.267648 30.117888-20.164608 64.6656-40.364032 103.04512-59.218944 259.439616-127.455232 533.72416-128.717824 792.379392 79.681536 3.542016 2.863104 3.542016 2.863104 7.084032 5.766144 10.49088 8.624128 26.624 7.820288 36.031488-1.796096 9.409536-9.617408 8.531968-24.403968-1.958912-33.02912-3.73248-3.057664-3.73248-3.057664-7.465984-6.076416-26.23488-21.136384-52.64896-40.257536-79.210496-57.439232z"  horiz-adv-x="1024" />

    
    <glyph glyph-name="password-visible" unicode="&#58889;" d="M512 608.224c-156.256 0-300-73.408-433.216-224.224 133.216-150.784 276.992-224.224 433.216-224.224S812 233.184 945.216 384C812 534.784 668.224 608.224 512 608.224z m0-508.672c-188.512 0-359.168 94.816-512 284.448 152.832 189.632 323.488 284.448 512 284.448S871.168 573.632 1024 384c-152.832-189.632-323.488-284.448-512-284.448z m0 174.016a110.4 110.4 0 1 1 0 220.864 110.4 110.4 0 0 1 0-220.864z m0-60.224a170.656 170.656 0 1 0 0 341.312 170.656 170.656 0 0 0 0-341.312z"  horiz-adv-x="1024" />

    
    <glyph glyph-name="cancel" unicode="&#58916;" d="M512 440.569L794.843 723.41a8 8 0 0 0 11.313 0l45.255-45.255a8 8 0 0 0 0-11.313L568.57 384 851.41 101.15700000000004a8 8 0 0 0 0-11.313l-45.255-45.255a8 8 0 0 0-11.313 0L512 327.42999999999995 229.157 44.59000000000003a8 8 0 0 0-11.313 0l-45.255 45.255a8 8 0 0 0 0 11.313L455.43 384 172.59 666.843a8 8 0 0 0 0 11.313l45.255 45.255a8 8 0 0 0 11.313 0L512 440.57z"  horiz-adv-x="1024" />

    
    <glyph glyph-name="poweroff" unicode="&#59252;" d="M320 704v-106.432c-97.28-61.12-161.792-167.68-161.792-289.024 0-189.632 157.632-343.36 352-343.36 194.432 0 352 153.728 352 343.36 0 119.808-62.848 225.28-158.208 286.72V704c151.36-70.144 256-220.608 256-394.944C960 67.648 759.424-128 512-128s-448 195.648-448 437.056C64 483.392 168.64 633.856 320 704z m128 192h128v-448H448V896z"  horiz-adv-x="1024" />

    
    <glyph glyph-name="key" unicode="&#59253;" d="M443.25546667 409.25866667c-29.35466667 47.104-41.09653333 99.9424-41.09653334 158.72A291.0208 291.0208 0 0 0 695.97866667 861.86666667 291.0208 291.0208 0 0 0 989.86666667 567.9786666699999a291.0208 291.0208 0 0 0-293.888-293.81973334c-64.64853333 0-117.48693333 17.6128-170.3936 52.90666667l-135.168-135.168 64.64853333-64.7168-82.3296-82.26133333-64.64853333 64.64853333-41.09653334-41.1648 64.64853334-64.64853333-82.3296-82.26133334L102.4 68.40319999999997l340.85546667 340.92373333z m252.7232 335.0528c-99.87413333 0-176.26453333-76.45866667-176.26453334-176.3328s76.3904-176.26453333 176.26453334-176.26453334c99.9424 0 176.3328 76.3904 176.3328 176.26453334 0 99.9424-82.26133333 176.3328-176.3328 176.3328z"  horiz-adv-x="1024" />

    
    <glyph glyph-name="chart-relation" unicode="&#59277;" d="M403.520683 240.660288l-91.333603-68.819998a127.918212 127.918212 0 1 0-36.392732 52.638344l93.700091 70.610853a223.856872 223.856872 0 0 0 292.612911 296.130662l31.915593 71.634199a127.918212 127.918212 0 1 0 59.929683-22.641524l-36.776486-82.507247a223.409158 223.409158 0 0 0 81.164106-172.497709c0-55.772341-20.338996-106.747748-54.045445-145.890721l99.200574-122.545648a127.918212 127.918212 0 1 0-50.016021-39.846523l-97.409719 120.24312c-34.985631-22.641524-76.750927-35.817099-121.586261-35.8171a223.345199 223.345199 0 0 0-170.962691 79.309292z"  horiz-adv-x="1024" />

    
    <glyph glyph-name="chart-scatter-plot" unicode="&#59278;" d="M85.504-42.688H1024V-128H0v85.312h0.192V896h85.312v-938.688zM384.192 384a128 128 0 1 0 0 256 128 128 0 0 0 0-256z m298.688-298.688a128 128 0 1 0 0 256 128 128 0 0 0 0-256zM320.192 682.688a64 64 0 1 0 0 128 64 64 0 0 0 0-128z m-42.688-597.376a64 64 0 1 0 0 128 64 64 0 0 0 0-128z m426.688 341.376a64 64 0 1 0 0 128 64 64 0 0 0 0-128zM917.504 512a64 64 0 1 0 0 128 64 64 0 0 0 0-128zM746.88 725.312a64 64 0 1 0 0 128 64 64 0 0 0 0-128z m-298.688-512a64 64 0 1 0 0 128 64 64 0 0 0 0-128z"  horiz-adv-x="1024" />

    
    <glyph glyph-name="chart-line" unicode="&#59280;" d="M85.504-42.688H1024V-128H0v85.312h0.192V896h85.312v-938.688z m120.256 169.984l-70.208 48.512L372.48 518.272l303.424-155.52 265.472 345.92 67.712-51.968-308.8-402.304-300.16 153.856-194.368-280.96z"  horiz-adv-x="1024" />

    
    <glyph glyph-name="chart-bar" unicode="&#59281;" d="M85.312-42.688H1024V-128H0V896h85.312v-938.688zM256 554.688h85.312V128H256V554.688zM512 768h85.312v-640H512V768z m256-213.312h85.312V128H768V554.688z"  horiz-adv-x="1024" />

    
    <glyph glyph-name="mobile-alt" unicode="&#59290;" d="M272 810.688v-853.376h480V810.688h-480zM232 896h560c22.08 0 40-19.072 40-42.688v-938.624c0-23.616-17.92-42.688-40-42.688h-560C209.92-128 192-108.928 192-85.312V853.312C192 876.928 209.92 896 232 896z m40-810.688h480v-170.624h-480v170.624z m240-128c22.08 0 40 19.136 40 42.688 0 23.552-17.92 42.688-40 42.688s-40-19.136-40-42.688c0-23.552 17.92-42.688 40-42.688z"  horiz-adv-x="1024" />

    
    <glyph glyph-name="nail-fixed" unicode="&#59295;" d="M334.72 283.84L127.36 491.264l85.12 85.184L390.016 504.96l275.968 214.4-72.32 72.32L678.912 876.8l82.944-82.88 0.192 0.128L928 628.16l-0.192-0.256 82.944-82.944-85.12-85.184-72.32 72.256L638.848 256l71.488-177.408-85.12-85.184-207.488 207.36-255.36-255.296-82.944 82.944 255.36 255.36z"  horiz-adv-x="1024" />

    
    <glyph glyph-name="all-fill" unicode="&#59300;" d="M0 896h469.312v-469.312H0V896z m0-554.688h469.312V-128H0V341.312zM554.688 896H1024v-469.312H554.688V896z m0-554.688H1024V-128H554.688V341.312z"  horiz-adv-x="1024" />

    
    <glyph glyph-name="database-fill" unicode="&#59302;" d="M64 539.84h896v-311.68H64v311.68zM64 896h896v-311.68H64V896z m0-712.32h896V-128H64v311.68z m134.4 578.752v-44.544h89.6v44.544H198.4z m0-356.16v-44.544h89.6v44.544H198.4z m0-356.16v-44.544h89.6v44.544H198.4z"  horiz-adv-x="1024" />

    
    <glyph glyph-name="paperplane-fill" unicode="&#59305;" d="M312.128 97.60000000000002L833.28 616.96l-521.344-405.76L0 384l1024 512-120.832-1024-283.968 164.16L312.128-128v225.6z m517.12 514.944l-0.512 0.64 4.544 3.712-4.032-4.352z"  horiz-adv-x="1024" />

    
    <glyph glyph-name="question-circle" unicode="&#59266;" d="M512 832C264.6 832 64 631.4 64 384s200.6-448 448-448 448 200.6 448 448S759.4 832 512 832z m0-820c-205.4 0-372 166.6-372 372s166.6 372 372 372 372-166.6 372-372-166.6-372-372-372zM623.6 579.3C593.6 605.6 554 620 512 620s-81.6-14.5-111.6-40.7C369.2 552 352 515.3 352 476v-7.6c0-4.4 3.6-8 8-8h48c4.4 0 8 3.6 8 8V476c0 44.1 43.1 80 96 80s96-35.9 96-80c0-31.1-22-59.6-56.1-72.7-21.2-8.1-39.2-22.3-52.1-40.9-13.1-19-19.9-41.8-19.9-64.9V276c0-4.4 3.6-8 8-8h48c4.4 0 8 3.6 8 8v22.7c0 19.7 12.4 37.7 30.9 44.8 59 22.7 97.1 74.7 97.1 132.5 0.1 39.3-17.1 76-48.3 103.3zM512 164m-40 0a40 40 0 1 1 80 0 40 40 0 1 1-80 0Z"  horiz-adv-x="1024" />

    


  </font>
</defs>
</svg>
